<svg width="40" height="40" viewBox="0 0 40 40" fill="none" xmlns="http://www.w3.org/2000/svg">
<path fill-rule="evenodd" clip-rule="evenodd" d="M27.646 13.69C27.628 13.716 26.0627 15.9767 22.2113 17.55C22.438 18.0153 22.6573 18.4887 22.86 18.9647C22.932 19.1353 23.0027 19.3027 23.0707 19.47C26.422 19.048 29.7233 19.7573 29.8647 19.7867C29.842 17.474 29.014 15.352 27.646 13.69ZM23.6653 21.0093C24.9447 24.5253 25.4647 27.3893 25.564 27.9773C27.754 26.4993 29.31 24.1527 29.744 21.434C29.5427 21.3687 26.814 20.5047 23.6653 21.0093ZM23.9207 28.8687C23.7767 28.016 23.21 25.0287 21.8373 21.4613C21.8153 21.4693 21.794 21.4753 21.772 21.4833C16.0167 23.4887 14.1367 27.5327 14.1167 27.5773C15.7727 28.8653 17.85 29.6427 20.1127 29.6427C21.4633 29.642 22.75 29.3667 23.9207 28.8687ZM21.4607 16.096C25.1413 14.7167 26.5307 12.6013 26.5547 12.5653C24.8373 11.0513 22.582 10.1327 20.1127 10.1327C19.32 10.1327 18.5507 10.2287 17.814 10.406C17.96 10.602 19.792 13.0327 21.4607 16.096ZM21.172 19.8447C20.9273 19.29 20.66 18.7347 20.3807 18.1867C15.3573 19.6907 10.538 19.5827 10.3653 19.576C10.3627 19.6807 10.3573 19.782 10.3573 19.8873C10.3573 22.3933 11.3027 24.6787 12.8567 26.4047C12.8533 26.4007 15.5233 21.664 20.7873 19.9613C20.914 19.9193 21.044 19.8813 21.172 19.8447ZM31.3027 17.5873C31.4567 18.3387 31.536 19.1127 31.536 19.8873C31.536 20.6607 31.4573 21.4333 31.3027 22.186C31.152 22.9213 30.9287 23.6433 30.6367 24.3333C30.3513 25.0107 29.9973 25.664 29.5833 26.2733C29.176 26.8787 28.706 27.446 28.19 27.964C27.6727 28.4787 27.104 28.948 26.5 29.3587C25.8893 29.77 25.236 30.1233 24.5593 30.4113C23.8693 30.7027 23.1473 30.9253 22.4133 31.076C21.66 31.2313 20.886 31.3107 20.1127 31.3107C19.338 31.3107 18.564 31.232 17.812 31.076C17.0773 30.9253 16.3547 30.702 15.6653 30.4113C14.988 30.1233 14.3347 29.77 13.724 29.3587C13.12 28.9487 12.5513 28.4793 12.0353 27.964C11.5187 27.446 11.0493 26.8787 10.6407 26.2733C10.2287 25.664 9.874 25.01 9.58733 24.3333C9.29533 23.6433 9.07133 22.9213 8.92 22.186C8.76733 21.4333 8.68933 20.6607 8.68933 19.8873C8.68933 19.1127 8.76733 18.3387 8.92067 17.5873C9.072 16.852 9.29533 16.1293 9.58733 15.4407C9.874 14.762 10.2287 14.1087 10.6407 13.4993C11.0487 12.8933 11.5187 12.3267 12.0353 11.8087C12.5513 11.2933 13.12 10.8253 13.724 10.416C14.3347 10.0027 14.988 9.648 15.6653 9.36067C16.3547 9.06867 17.0773 8.84533 17.812 8.69533C18.564 8.54133 19.338 8.46333 20.1127 8.46333C20.886 8.46333 21.66 8.54133 22.4133 8.69533C23.1473 8.84533 23.8693 9.06867 24.5593 9.36067C25.2367 9.648 25.8893 10.0027 26.5 10.416C27.104 10.8253 27.6733 11.2933 28.19 11.8087C28.7053 12.3267 29.176 12.8933 29.5833 13.4993C29.9973 14.1087 30.3513 14.762 30.6367 15.4407C30.9293 16.1293 31.1527 16.852 31.3027 17.5873ZM19.5727 16.6847C17.884 13.6847 16.08 11.2367 15.95 11.0633C13.2293 12.348 11.1993 14.8553 10.566 17.876C10.8233 17.878 14.8887 17.9293 19.5727 16.6847ZM20 40C8.95467 40 0 31.0453 0 20C0 8.954 8.95467 0 20 0C31.0453 0 40 8.954 40 20C40 31.0453 31.0453 40 20 40Z" fill="#DF3E7B"/>
</svg>
