<svg width="40" height="40" viewBox="0 0 40 40" fill="none" xmlns="http://www.w3.org/2000/svg">
<path fill-rule="evenodd" clip-rule="evenodd" d="M11.6953 20.3787C11.6593 20.3787 12.09 21.29 12.102 21.29C13.042 22.9673 14.854 24.01 17.9107 24.2993C17.4747 24.6247 16.9507 25.242 16.878 25.9553C16.3293 26.304 15.226 26.4193 14.3687 26.1533C13.1667 25.7807 12.7067 23.4427 10.9073 23.776C10.518 23.8473 10.5953 24.1 10.932 24.3153C11.4807 24.664 11.9967 25.1007 12.3947 26.0293C12.7007 26.7427 13.3433 28.0167 15.3767 28.0167C16.1833 28.0167 16.7487 27.9213 16.7487 27.9213C16.7487 27.9213 16.764 29.742 16.764 30.45C16.764 31.2667 15.6427 31.4967 15.6427 31.8893C15.6427 32.0447 16.014 32.0593 16.312 32.0593C16.9013 32.0593 18.1273 31.576 18.1273 30.7273C18.1273 30.0533 18.1387 27.7873 18.1387 27.39C18.1387 26.5233 18.6113 26.2487 18.6113 26.2487C18.6113 26.2487 18.67 30.8753 18.4987 31.4967C18.2973 32.226 17.934 32.1227 17.934 32.448C17.934 32.932 19.41 32.5673 19.8993 31.504C20.2773 30.678 20.112 26.1373 20.112 26.1373L20.5153 26.1293C20.5153 26.1293 20.538 28.2073 20.524 29.1573C20.51 30.1413 20.4427 31.3853 21.0373 31.972C21.428 32.358 22.6933 33.0347 22.6933 32.416C22.6933 32.0567 22 31.7613 22 30.7887V26.312C22.554 26.312 22.4707 27.784 22.4707 27.784L22.5113 30.5193C22.5113 30.5193 22.3887 31.5153 23.608 31.932C24.038 32.0807 24.958 32.1207 25.0013 31.872C25.0447 31.6233 23.8933 31.2533 23.8827 30.4827C23.876 30.0113 23.904 29.7367 23.904 27.6913C23.904 25.646 23.6247 24.89 22.6507 24.2873C25.656 23.984 27.5167 23.2533 28.4227 21.2967C28.4933 21.2987 28.7927 20.3827 28.7533 20.3827C28.9567 19.644 29.0667 18.77 29.088 17.7353C29.0827 14.9287 27.716 13.936 27.454 13.47C27.8407 11.3453 27.3887 10.3787 27.1793 10.0467C26.4047 9.776 24.4853 10.7433 23.436 11.4247C21.7267 10.9333 18.112 10.9807 16.7567 11.5513C14.256 9.792 12.9327 10.0613 12.9327 10.0613C12.9327 10.0613 12.0773 11.5673 12.7067 13.7713C11.884 14.802 11.2707 15.5313 11.2707 17.464C11.2707 18.5533 11.4013 19.528 11.6953 20.3787ZM20 40C8.95467 40 0 31.0453 0 20C0 8.954 8.95467 0 20 0C31.0453 0 40 8.954 40 20C40 31.0453 31.0453 40 20 40Z" fill="#24292E"/>
</svg>
