<svg width="40" height="40" viewBox="0 0 40 40" fill="none" xmlns="http://www.w3.org/2000/svg">
<path fill-rule="evenodd" clip-rule="evenodd" d="M22.778 12.1887C21.032 12.824 19.9287 14.4627 20.054 16.256L20.096 16.948L19.3973 16.8633C16.8553 16.5387 14.634 15.4373 12.748 13.5867L11.826 12.6687L11.5887 13.3467C11.086 14.858 11.4073 16.454 12.4547 17.5273C13.0133 18.1207 12.8873 18.2053 11.924 17.852C11.5887 17.7393 11.2953 17.6547 11.2673 17.6967C11.17 17.796 11.5047 19.0807 11.77 19.5893C12.1333 20.296 12.8733 20.9873 13.684 21.3973L14.3687 21.722L13.5587 21.736C12.7767 21.736 12.7487 21.75 12.8327 22.0473C13.112 22.9653 14.2153 23.94 15.4447 24.364L16.3107 24.66L15.5567 25.112C14.4393 25.7627 13.126 26.1293 11.8127 26.1567C11.1833 26.1707 10.6667 26.2273 10.6667 26.27C10.6667 26.4107 12.3713 27.2013 13.3627 27.5127C16.338 28.4307 19.8727 28.0347 22.5267 26.4673C24.4127 25.3513 26.298 23.134 27.1787 20.9867C27.654 19.8433 28.1287 17.7527 28.1287 16.7507C28.1287 16.1007 28.1707 16.016 28.9527 15.2393C29.414 14.7873 29.8467 14.2933 29.9307 14.152C30.0707 13.8833 30.056 13.8833 29.344 14.1233C28.1567 14.5473 27.9887 14.4907 28.576 13.8553C29.0087 13.4033 29.526 12.584 29.526 12.344C29.526 12.302 29.3167 12.372 29.0787 12.4993C28.8273 12.6407 28.2687 12.8527 27.8493 12.9793L27.0953 13.22L26.4107 12.7533C26.0333 12.4993 25.5033 12.2167 25.2233 12.132C24.5107 11.9347 23.4207 11.9627 22.778 12.1887ZM20 40C8.95467 40 0 31.0453 0 20C0 8.954 8.95467 0 20 0C31.0453 0 40 8.954 40 20C40 31.0453 31.0453 40 20 40Z" fill="#1DA1F2"/>
</svg>
